<svg xmlns="http://www.w3.org/2000/svg" width="42" height="52" viewBox="0 0 42 52" fill="none"><path d="M2.8797 52V44.335L22.5897 25.72C24.147 24.3087 25.2907 23.0433 26.0207 21.924C26.7507 20.8047 27.2374 19.7827 27.4807 18.858C27.7727 17.9333 27.9187 17.0817 27.9187 16.303C27.9187 14.259 27.213 12.7017 25.8017 11.631C24.439 10.5117 22.4194 9.952 19.7427 9.952C17.6014 9.952 15.606 10.3657 13.7567 11.193C11.956 12.0203 10.423 13.31 9.1577 15.062L0.543703 9.514C2.49037 6.594 5.2157 4.28233 8.7197 2.579C12.2237 0.875665 16.263 0.0239991 20.8377 0.0239991C24.6337 0.0239991 27.943 0.656665 30.7657 1.922C33.637 3.13866 35.8514 4.86633 37.4087 7.105C39.0147 9.34367 39.8177 12.0203 39.8177 15.135C39.8177 16.7897 39.5987 18.4443 39.1607 20.099C38.7714 21.705 37.944 23.4083 36.6787 25.209C35.462 27.0097 33.6614 29.0293 31.2767 31.268L14.9247 46.671L12.6617 42.364H41.4967V52H2.8797Z" fill="url(#paint0_linear_11_2850)"></path><defs><linearGradient id="paint0_linear_11_2850" x1="-18.9655" y1="-8" x2="12.2865" y2="81.121" gradientUnits="userSpaceOnUse"><stop stop-color="#FFC123"></stop><stop offset="1" stop-color="#D09A10"></stop></linearGradient></defs></svg>