<svg xmlns="http://www.w3.org/2000/svg" width="41" height="53" viewBox="0 0 41 53" fill="none"><path d="M19.8174 52.876C16.2647 52.876 12.7364 52.4137 9.23241 51.489C5.72841 50.5157 2.75975 49.153 0.326414 47.401L4.92541 38.349C6.87208 39.7603 9.13508 40.8797 11.7144 41.707C14.2937 42.5343 16.8974 42.948 19.5254 42.948C22.4941 42.948 24.8301 42.364 26.5334 41.196C28.2367 40.028 29.0884 38.422 29.0884 36.378C29.0884 34.4313 28.3341 32.8983 26.8254 31.779C25.3167 30.6597 22.8834 30.1 19.5254 30.1H14.1234V22.289L28.3584 6.156L29.6724 10.39H2.88141V0.899997H38.6514V8.565L24.4894 24.698L18.5034 21.267H21.9344C28.2124 21.267 32.9574 22.6783 36.1694 25.501C39.3814 28.3237 40.9874 31.9493 40.9874 36.378C40.9874 39.2493 40.2331 41.9503 38.7244 44.481C37.2157 46.963 34.9041 48.9827 31.7894 50.54C28.6747 52.0973 24.6841 52.876 19.8174 52.876Z" fill="url(#paint0_linear_11_2856)"></path><defs><linearGradient id="paint0_linear_11_2856" x1="-18.9655" y1="-8" x2="12.2865" y2="81.121" gradientUnits="userSpaceOnUse"><stop stop-color="#FFC123"></stop><stop offset="1" stop-color="#D09A10"></stop></linearGradient></defs></svg>