<?xml version="1.0" encoding="UTF-8"?> <svg xmlns="http://www.w3.org/2000/svg" width="70" height="70" viewBox="0 0 70 70" fill="none"><path d="M61.25 8.75H8.74996C5.51246 8.75 2.91663 11.3458 2.91663 14.5833V49.5833C2.91663 51.1304 3.53121 52.6142 4.62517 53.7081C5.71913 54.8021 7.20286 55.4167 8.74996 55.4167H23.3333V61.25H46.6666V55.4167H61.25C64.4583 55.4167 67.0541 52.7917 67.0541 49.5833L67.0833 14.5833C67.0833 13.0362 66.4687 11.5525 65.3747 10.4585C64.2808 9.36458 62.7971 8.75 61.25 8.75ZM61.25 49.5833H8.74996V14.5833H61.25V49.5833ZM46.6666 32.0833L26.25 43.75V20.4167L46.6666 32.0833Z" fill="#F2B93B"></path></svg> 