<?xml version="1.0" encoding="UTF-8"?> <svg xmlns="http://www.w3.org/2000/svg" width="70" height="70" viewBox="0 0 70 70" fill="none"><path d="M63.875 53.4844L61.6055 45.0352L52.5547 11.211C52.2536 10.0906 51.5198 9.13573 50.5148 8.5563C49.5098 7.97687 48.3157 7.82033 47.1953 8.12111L38.7461 10.3906L38.4727 10.4727C38.0651 9.93803 37.5398 9.5045 36.9375 9.20574C36.3353 8.90699 35.6723 8.75104 35 8.75002H26.25C25.4803 8.75209 24.7251 8.95977 24.0625 9.35158C23.3999 8.95977 22.6447 8.75209 21.875 8.75002H13.125C11.9647 8.75002 10.8519 9.21096 10.0314 10.0314C9.21094 10.8519 8.75 11.9647 8.75 13.125V56.875C8.75 58.0353 9.21094 59.1481 10.0314 59.9686C10.8519 60.7891 11.9647 61.25 13.125 61.25H21.875C22.6447 61.2479 23.3999 61.0403 24.0625 60.6485C24.7251 61.0403 25.4803 61.2479 26.25 61.25H35C36.1603 61.25 37.2731 60.7891 38.0936 59.9686C38.9141 59.1481 39.375 58.0353 39.375 56.875V29.6406L44.707 49.5469L46.9766 57.9961C47.2243 58.9305 47.7745 59.7566 48.5412 60.3453C49.308 60.9339 50.2482 61.2521 51.2148 61.25C51.5923 61.2435 51.968 61.1976 52.3359 61.1133L60.7852 58.8438C61.341 58.6945 61.8617 58.4364 62.317 58.0843C62.7723 57.7323 63.1531 57.2934 63.4375 56.793C63.7291 56.2992 63.9181 55.7517 63.9933 55.1833C64.0684 54.6148 64.0282 54.037 63.875 53.4844ZM42.7109 25.1836L51.1602 22.9141L56.8203 44.0508L48.3711 46.3203L42.7109 25.1836ZM48.3164 12.3594L50.0391 18.6758L41.5898 20.9453L39.8672 14.6289L48.3164 12.3594ZM35 13.125V45.9375H26.25V13.125H35ZM21.875 13.125V19.6875H13.125V13.125H21.875ZM13.125 56.875V24.0625H21.875V56.875H13.125ZM35 56.875H26.25V50.3125H35V56.875ZM59.6641 54.6055L51.2148 56.875L49.4922 50.5313L57.9688 48.2617L59.6641 54.6055Z" fill="#F2B93B"></path></svg> 