<?xml version="1.0" encoding="UTF-8"?> <svg xmlns="http://www.w3.org/2000/svg" width="70" height="70" viewBox="0 0 70 70" fill="none"><path d="M59.0625 10.9375H10.9375C9.77718 10.9375 8.66438 11.3984 7.84391 12.2189C7.02344 13.0394 6.5625 14.1522 6.5625 15.3125V54.6875C6.5625 55.8478 7.02344 56.9606 7.84391 57.7811C8.66438 58.6016 9.77718 59.0625 10.9375 59.0625H14.6016C15.0158 59.0637 15.4216 58.9457 15.7706 58.7227C16.1197 58.4997 16.3973 58.181 16.5703 57.8047C17.6406 55.5647 19.3231 53.6734 21.4231 52.3494C23.5231 51.0254 25.955 50.3228 28.4375 50.3228C30.92 50.3228 33.3519 51.0254 35.4519 52.3494C37.552 53.6734 39.2344 55.5647 40.3047 57.8047C40.4777 58.181 40.7553 58.4997 41.1044 58.7227C41.4534 58.9457 41.8592 59.0637 42.2734 59.0625H59.0625C60.2228 59.0625 61.3356 58.6016 62.1561 57.7811C62.9766 56.9606 63.4375 55.8478 63.4375 54.6875V15.3125C63.4375 14.1522 62.9766 13.0394 62.1561 12.2189C61.3356 11.3984 60.2228 10.9375 59.0625 10.9375ZM21.875 39.375C21.875 38.0771 22.2599 36.8083 22.981 35.7291C23.7021 34.6499 24.727 33.8087 25.9261 33.312C27.1253 32.8153 28.4448 32.6854 29.7178 32.9386C30.9908 33.1918 32.1601 33.8168 33.0779 34.7346C33.9957 35.6524 34.6207 36.8217 34.8739 38.0947C35.1271 39.3677 34.9972 40.6872 34.5005 41.8864C34.0038 43.0855 33.1626 44.1104 32.0834 44.8315C31.0042 45.5526 29.7354 45.9375 28.4375 45.9375C26.6992 45.9303 25.0342 45.2366 23.8051 44.0074C22.5759 42.7783 21.8822 41.1133 21.875 39.375ZM59.0625 54.6875H43.5859C41.7602 51.5464 39.0102 49.0448 35.7109 47.5234C37.3668 46.049 38.5355 44.1061 39.0621 41.9523C39.5886 39.7986 39.4482 37.5356 38.6594 35.4635C37.8705 33.3914 36.4706 31.6079 34.6451 30.3496C32.8195 29.0912 30.6547 28.4173 28.4375 28.4173C26.2203 28.4173 24.0555 29.0912 22.2299 30.3496C20.4044 31.6079 19.0045 33.3914 18.2156 35.4635C17.4268 37.5356 17.2864 39.7986 17.8129 41.9523C18.3395 44.1061 19.5082 46.049 21.1641 47.5234C17.8648 49.0448 15.1148 51.5464 13.2891 54.6875H10.9375V15.3125H59.0625V54.6875ZM15.3125 26.25V21.875C15.3125 21.2948 15.543 20.7384 15.9532 20.3282C16.3634 19.918 16.9198 19.6875 17.5 19.6875H52.5C53.0802 19.6875 53.6366 19.918 54.0468 20.3282C54.457 20.7384 54.6875 21.2948 54.6875 21.875V48.125C54.6875 48.7052 54.457 49.2616 54.0468 49.6718C53.6366 50.082 53.0802 50.3125 52.5 50.3125H48.125C47.5448 50.3125 46.9884 50.082 46.5782 49.6718C46.168 49.2616 45.9375 48.7052 45.9375 48.125C45.9375 47.5448 46.168 46.9884 46.5782 46.5782C46.9884 46.168 47.5448 45.9375 48.125 45.9375H50.3125V24.0625H19.6875V26.25C19.6875 26.8302 19.457 27.3866 19.0468 27.7968C18.6366 28.207 18.0802 28.4375 17.5 28.4375C16.9198 28.4375 16.3634 28.207 15.9532 27.7968C15.543 27.3866 15.3125 26.8302 15.3125 26.25Z" fill="#F2B93B"></path></svg> 